<svg xmlns="http://www.w3.org/2000/svg" version="1.1" xmlns:xlink="http://www.w3.org/1999/xlink" width="512" height="512" x="0" y="0" viewBox="0 0 64 64">
<path d="M13.969 22.711a1.006 1.006 0 0 0 1.414 0A22.208 22.208 0 0 1 32 15.001L34 15a1 1 0 0 0 1-1v-3h1a2.002 2.002 0 0 0 2-2V6a2.002 2.002 0 0 0-2-2h-8a2.002 2.002 0 0 0-2 2v3a2.002 2.002 0 0 0 2 2h1v2.208a23.207 23.207 0 0 0-11.351 4.698l-1.559-1.558a2.047 2.047 0 0 0-2.828 0l-1.414 1.414a2.009 2.009 0 0 0 0 2.828ZM28 6h8l.001 3S29.28 9.002 28 9Zm3 7v-2h2v2Zm-16.324 4.762 1.414 1.414c-.465.463-.957.946-1.414 1.414l-1.414-1.414ZM32 60c19.412.088 30.478-22.696 18.608-37.866l1.544-1.544a2.009 2.009 0 0 0 0-2.828l-1.414-1.414a2.047 2.047 0 0 0-2.828 0l-1.548 1.547a23.458 23.458 0 0 0-7.178-3.768 1 1 0 0 0-.608 1.906 21.408 21.408 0 0 1 8.228 4.865C60.78 34.043 51.35 58.033 32 58c-15.8.26-26.559-17.42-19.13-31.334a1 1 0 0 0-1.78-.913C2.975 40.958 14.727 60.288 32 60Zm15.91-40.824 1.414-1.414 1.414 1.414-1.414 1.414c-.46-.47-.943-.952-1.414-1.414Z"></path>
<path d="M13.5 36.5A18.52 18.52 0 0 0 32 55c24.543-1.016 24.536-35.988 0-37a18.52 18.52 0 0 0-18.5 18.5Zm35 0A16.519 16.519 0 0 1 32 53c-21.89-.906-21.883-32.097 0-33a16.519 16.519 0 0 1 16.5 16.5Z"></path>
<path d="M31 23a1 1 0 0 0 2 0 1 1 0 0 0-2 0ZM45.5 37.5a1 1 0 0 0 0-2 1 1 0 0 0 0 2ZM32 49a1 1 0 0 0 0 2 1 1 0 0 0 0-2ZM18.5 35.5a1 1 0 0 0 0 2 1 1 0 0 0 0-2ZM33 28a1 1 0 0 0-2 0v5.684a2.99 2.99 0 0 0-1.945 3.361l-8.38 4.839a1 1 0 1 0 1 1.732l8.39-4.843c3.742 2.863 7.276-3.277 2.935-5.089Zm-1 9.5a1 1 0 0 1 0-2 1 1 0 0 1 0 2Z"></path>
</svg>