<svg width="32" height="32" viewBox="0 0 32 32" xmlns="http://www.w3.org/2000/svg">
<path d="M16 9.44262C18.0983 9.44262 18.3607 9.44262 19.1475 9.44262C19.9344 9.44262 20.3278 9.57377 20.5901 9.70492C20.9836 9.83607 21.2459 9.96721 21.5082 10.2295C21.7705 10.4918 21.9016 10.7541 22.0327 11.1475C22.1639 11.4098 22.295 11.8033 22.295 12.5902C22.295 13.377 22.295 13.6393 22.295 15.7377C22.295 17.8361 22.295 18.0984 22.295 18.8852C22.295 19.6721 22.1639 20.0656 22.0327 20.3279C21.9016 20.7213 21.7705 20.9836 21.5082 21.2459C21.2459 21.5082 20.9836 21.6393 20.5901 21.7705C20.3278 21.9016 19.9344 22.0328 19.1475 22.0328C18.3607 22.0328 18.0983 22.0328 16 22.0328C13.9016 22.0328 13.6393 22.0328 12.8524 22.0328C12.0655 22.0328 11.6721 21.9016 11.4098 21.7705C11.0164 21.6393 10.7541 21.5082 10.4918 21.2459C10.2295 20.9836 10.0984 20.7213 9.96721 20.3279C9.83607 20.0656 9.7049 19.6721 9.7049 18.8852C9.7049 18.0984 9.7049 17.8361 9.7049 15.7377C9.7049 13.6393 9.7049 13.377 9.7049 12.5902C9.7049 11.8033 9.83607 11.4098 9.96721 11.1475C10.0984 10.7541 10.2295 10.4918 10.4918 10.2295C10.7541 9.96721 11.0164 9.83607 11.4098 9.70492C11.6721 9.57377 12.0655 9.44262 12.8524 9.44262C13.6393 9.44262 13.9016 9.44262 16 9.44262ZM16 8C13.9016 8 13.6393 8 12.7213 8C11.9344 8 11.2787 8.13115 10.7541 8.39344C10.2295 8.65574 9.83607 8.91803 9.31148 9.31148C8.91803 9.70492 8.65572 10.2295 8.39343 10.7541C8.26228 11.2787 8.13115 11.8033 8 12.7213C8 13.5082 8 13.7705 8 16C8 18.0984 8 18.3607 8 19.2787C8 20.0656 8.13113 20.7213 8.39343 21.2459C8.65572 21.7705 8.91803 22.1639 9.31148 22.6885C9.70492 23.082 10.2295 23.3443 10.7541 23.6066C11.2787 23.7377 11.8032 23.8689 12.7213 24C13.5082 24 13.7705 24 16 24C18.2295 24 18.3606 24 19.2787 24C20.0655 24 20.7213 23.8689 21.2459 23.6066C21.7705 23.3443 22.1639 23.082 22.6885 22.6885C23.0819 22.2951 23.3442 21.7705 23.6065 21.2459C23.7377 20.7213 23.8688 20.1967 23.9999 19.2787C23.9999 18.4918 23.9999 18.2295 23.9999 16C23.9999 13.7705 23.9999 13.6393 23.9999 12.7213C23.9999 11.9344 23.8688 11.2787 23.6065 10.7541C23.3442 10.2295 23.0819 9.83607 22.6885 9.31148C22.295 8.91803 21.7705 8.65574 21.2459 8.39344C20.7213 8.2623 20.1967 8.13115 19.2787 8C18.3606 8 18.0983 8 16 8Z"/>
<path d="M16.0006 11.8033C13.7711 11.8033 11.9351 13.6394 11.9351 15.8689C11.9351 18.0984 13.7711 19.9345 16.0006 19.9345C18.2301 19.9345 20.0661 18.0984 20.0661 15.8689C20.0661 13.6394 18.2301 11.8033 16.0006 11.8033ZM16.0006 18.4919C14.558 18.4919 13.3776 17.3115 13.3776 15.8689C13.3776 14.4263 14.558 13.246 16.0006 13.246C17.4432 13.246 18.6236 14.4263 18.6236 15.8689C18.6236 17.3115 17.4432 18.4919 16.0006 18.4919Z"/>
<path d="M20.1969 12.59C20.7039 12.59 21.1149 12.179 21.1149 11.6719C21.1149 11.1649 20.7039 10.7539 20.1969 10.7539C19.6898 10.7539 19.2788 11.1649 19.2788 11.6719C19.2788 12.179 19.6898 12.59 20.1969 12.59Z"/>
</svg>
