<svg xmlns="http://www.w3.org/2000/svg" width="568px" height="544px" viewBox="0 0 568 544">
    <path d="M 128.441406 265.582031 L 49.6875 193.304688 L 171.488281 73.164063 L 293.304688 96.738281 L 229.933594 162.484375 L 566.121094 497.011719 C 571.484375 532.695313 554.683594 548.679688 520.648438 542.5 L 181.214844 211.1875 L 128.441406 265.582031 "/>
    <path d="M 292.058594 0.328125 C 348.929688 41.128906 405.878906 90.707031 434.246094 153.691406 C 460.074219 211.03125 463.65625 272.457031 441.847656 314.863281 C 421.128906 355.144531 392.386719 389.523438 353.800781 403.371094 C 300.921875 422.355469 231.894531 416.214844 179.128906 356.386719 C 169.210938 345.136719 154.082031 341.742188 139.894531 353.980469 L 10.15625 465.902344 C -9.089844 482.507813 3.917969 506.253906 12.441406 513.640625 C 20.96875 521.023438 44.453125 529.90625 61.320313 510.214844 L 154.058594 401.945313 C 224.820313 495.660156 370.402344 517.242188 460.757813 431.800781 C 490.875 403.316406 510.253906 362.480469 524.8125 309.078125 C 550.019531 216.640625 517.726563 135.660156 456.742188 78.277344 C 413.648438 37.730469 353.636719 5.070313 292.058594 0.328125 "/>
    <path d="M 95.003906 368.035156 L 153.65625 428.246094 C 167.171875 442.121094 146.226563 462.519531 132.710938 448.648438 L 74.058594 388.4375 C 60.546875 374.566406 81.484375 354.160156 95.003906 368.035156 "/>
</svg>