<svg xmlns="http://www.w3.org/2000/svg" version="1.1" xmlns:xlink="http://www.w3.org/1999/xlink" width="512" height="512" x="0" y="0" viewBox="0 0 64 64">
<path d="M8 24.702a1 1 0 0 0-1 1 36.053 36.053 0 0 0 24.684 34.247C46.782 55.874 56.993 41.219 57 25.702V11a1 1 0 0 0-.757-.97l-24-6a.996.996 0 0 0-.486 0l-24 6A1 1 0 0 0 7 11v9.702a1 1 0 0 0 2 0V11.78l23-5.75 23 5.75V25.7a34.055 34.055 0 0 1-23 32.243A34.055 34.055 0 0 1 9 25.702a1 1 0 0 0-1-1Z" ></path>
<path d="M44.347 44.591a1 1 0 0 0 1.557 1.255A32.212 32.212 0 0 0 53 25.7V14.12a1 1 0 0 0-.757-.97l-20-5a.996.996 0 0 0-.486 0l-20 5a1 1 0 0 0-.757.97V25.7a31.645 31.645 0 0 0 21 30.05 29.768 29.768 0 0 0 10.366-6.154 1 1 0 0 0-1.332-1.492 30.052 30.052 0 0 1-9.033 5.574A29.856 29.856 0 0 1 13 25.7V14.9l19-4.75 19 4.75v10.802a30.203 30.203 0 0 1-6.653 18.89Z" ></path>
<path d="m36.793 25.626-6.626 6.626-2.96-2.959a1 1 0 0 0-1.414 1.414l3.666 3.667a1 1 0 0 0 1.415 0l7.333-7.333a1 1 0 0 0-1.414-1.415Z" ></path>
<path d="M40.485 22.929a1 1 0 0 0 0-1.414C28.741 10.722 12.72 26.782 23.514 38.488c9.003 8.836 23.824-.346 19.854-12.336a1 1 0 0 0-1.896.637 10.002 10.002 0 0 1-16.544 10.285c-9.012-9.729 4.396-23.151 14.143-14.145a1 1 0 0 0 1.414 0Z" ></path>
</svg>