<svg width="32" height="32" viewBox="0 0 32 32" xmlns="http://www.w3.org/2000/svg">
<path d="M10.873 16.5398L12.1235 20.3132C12.2886 20.7284 12.2077 20.8943 12.6844 20.8943C13.0524 20.8943 13.2149 20.741 13.4204 20.5575L15.1888 18.981L18.8646 21.4737C19.5408 21.8156 20.0292 21.6387 20.1976 20.8968L22.6111 10.4657C22.8587 9.55788 22.2338 9.14525 21.5862 9.41472L7.41362 14.4269C6.4452 14.7823 6.45278 15.2775 7.23678 15.4981L10.8747 16.5398L10.873 16.5389V16.5398ZM11.7193 16.0505L19.2949 11.6674C19.6924 11.4467 20.057 11.5646 19.758 11.8088L12.9345 17.4551L12.7955 19.3667L11.7193 16.0514V16.0505V16.0505Z"/>
</svg>
