<svg xmlns="http://www.w3.org/2000/svg" version="1.1" xmlns:xlink="http://www.w3.org/1999/xlink" width="512" height="512" x="0" y="0" viewBox="0 0 64 64" ><g><path d="M15.87 26.654H5.444a1 1 0 0 0-1 1V59a1 1 0 0 0 1 1h10.424a2.053 2.053 0 0 0 2.042-2.165c4.983.005 19.114.013 21.09.01a1 1 0 1 0-.002-2c-6.365.01-21.088-.01-21.088-.01V36.82a1 1 0 0 0-2 0V56.82a.045.045 0 0 0 0 .027L15.868 58H6.445V28.654c2.307-.007 7.214.002 9.466.042v3.124a1 1 0 0 0 2 0v-1h3.936a5.973 5.973 0 0 0 5.346-3.27l3.865-7.523a8.615 8.615 0 0 0 .942-3.89V7.72a1.818 1.818 0 0 1 .619-.832c2.257-1.318 3.055-1.216 5.043.669 4.999 4.601 2.85 11.237.952 16.934-.889.022-2.34-.255-2.376 1.012a1 1 0 0 0 1.006.995c4.763-.025 10.811-.047 15.343 0a5.121 5.121 0 0 1 3.826 1.622 4.372 4.372 0 0 1 .23 5.57 1.674 1.674 0 0 0-.012 2.262 3.753 3.753 0 0 1-.983 5.725 1.653 1.653 0 0 0-.702 2.149 3.726 3.726 0 0 1-1.551 4.498 1.765 1.765 0 0 0-.798 2.221 4.061 4.061 0 0 1-4.105 5.286c-1.166.006-2.709.01-4.493.013a1 1 0 0 0 .001 2c1.787-.003 3.334-.007 4.5-.012a6.067 6.067 0 0 0 6.016-7.851 5.753 5.753 0 0 0 2.35-6.716 5.739 5.739 0 0 0 1.425-8.436 6.378 6.378 0 0 0-.392-8.047 7.096 7.096 0 0 0-5.292-2.284c-3.491-.037-7.87-.032-11.877-.016a63.68 63.68 0 0 0 .395-1.215c1.667-5.118 3.257-12.47-2.115-17.187-2.618-2.484-4.346-2.7-7.397-.921A3.46 3.46 0 0 0 30 7.545v8.592a6.596 6.596 0 0 1-.723 2.98l-3.864 7.521a3.982 3.982 0 0 1-3.566 2.182H17.91a2.053 2.053 0 0 0-2.042-2.166z" ></path></g></svg>