<svg width="32" height="32" viewBox="0 0 32 32" fill="none" xmlns="http://www.w3.org/2000/svg">
<path d="M16.9959 22.6666C10.5039 22.6666 6.5559 18.1546 6.3999 10.6666H9.6999C9.8079 16.1746 12.3159 18.5026 14.2359 18.9826V10.6666H17.3799V15.4186C19.2399 15.2146 21.1719 13.0546 21.8199 10.6666H24.9399C24.7009 11.892 24.2134 13.0555 23.5076 14.0853C22.8018 15.1152 21.8925 15.9896 20.8359 16.6546C22.014 17.2643 23.0509 18.1144 23.8798 19.15C24.7087 20.1856 25.3111 21.3836 25.6479 22.6666H22.2399C21.5199 20.3866 19.7559 18.6226 17.3799 18.3826V22.6666H17.0199H16.9959Z"/>
</svg>
