<svg xmlns="http://www.w3.org/2000/svg" version="1.1" xmlns:xlink="http://www.w3.org/1999/xlink" width="512" height="512" x="0" y="0" viewBox="0 0 64 64" >
<path d="M8 57h46a4.004 4.004 0 0 0 4-4v-6a1 1 0 0 0-2 0v6a2.002 2.002 0 0 1-2 2H8a2.002 2.002 0 0 1-2-2V27.41a1 1 0 0 0-2 0V53a4.004 4.004 0 0 0 4 4z"></path>
<path d="M58 31V21a4.005 4.005 0 0 0-4-4h-4v-6a4.005 4.005 0 0 0-4-4H8a4.005 4.005 0 0 0-4 4v11.41a1 1 0 0 0 2 0v-3.966A3.954 3.954 0 0 0 8 19h46a2.002 2.002 0 0 1 2 2v10h-8a4.005 4.005 0 0 0-4 4v4a4.004 4.004 0 0 0 4 4h10a2.002 2.002 0 0 0 2-2v-8a2.002 2.002 0 0 0-2-2zM48 17H8a2.002 2.002 0 0 1-2-2v-4a2.002 2.002 0 0 1 2-2h38a2.002 2.002 0 0 1 2 2zm10 24H48a2.002 2.002 0 0 1-2-2v-4a2.002 2.002 0 0 1 2-2h10z"></path>
<path d="M49 38a1 1 0 0 0 0-2 1 1 0 0 0 0 2z"></path>
</svg>