<svg width="32" height="32" viewBox="0 0 32 32" xmlns="http://www.w3.org/2000/svg">
<path d="M21.6 10.3C20.1 8.8 18.1 8 16 8C11.6 8 8.1 11.6 8.1 15.9C8.1 17.3 8.5 18.7 9.2 19.9L8 24L12.2 22.9C13.4 23.5 14.7 23.9 16 23.9C20.4 23.9 23.9 20.3 23.9 16C23.9 13.8 23.1 11.8 21.6 10.3ZM16 22.5C14.8 22.5 13.7 22.2 12.6 21.6L12.4 21.5L9.9 22.1L10.6 19.7L10.4 19.5C9.7 18.5 9.4 17.2 9.4 16C9.4 12.4 12.4 9.4 16 9.4C17.8 9.4 19.4 10.1 20.7 11.3C21.9 12.5 22.6 14.2 22.6 16C22.6 19.6 19.6 22.5 16 22.5ZM19.6 17.6C19.4 17.5 18.4 17 18.2 17C18 17 17.9 16.8 17.8 17C17.7 17.2 17.3 17.6 17.2 17.8C17.1 17.9 17 17.9 16.8 17.8C16.6 17.7 16 17.5 15.2 16.8C14.6 16.3 14.2 15.6 14.1 15.4C14 15.2 14.1 15.1 14.2 15C14.3 14.9 14.4 14.8 14.5 14.7C14.6 14.6 14.6 14.5 14.7 14.4C14.8 14.3 14.7 14.2 14.7 14.1C14.7 14 14.3 13 14.1 12.6C13.9 12.2 13.8 12.3 13.7 12.3C13.6 12.3 13.5 12.3 13.3 12.3C13.2 12.3 13 12.3 12.8 12.5C12.6 12.7 12.1 13.2 12.1 14.2C12.1 15.2 12.8 16.1 12.9 16.2C13 16.3 14.3 18.3 16.3 19.2C16.8 19.4 17.1 19.5 17.4 19.6C17.9 19.8 18.3 19.7 18.6 19.7C19 19.6 19.8 19.2 19.9 18.8C20.1 18.3 20.1 17.9 20 17.9C19.9 17.9 19.8 17.7 19.6 17.6Z"/>
</svg>
