<?xml version="1.0" encoding="utf-8"?><svg xmlns="http://www.w3.org/2000/svg" xmlns:xlink="http://www.w3.org/1999/xlink"><symbol viewBox="0 0 512 512" id="case" xmlns="http://www.w3.org/2000/svg"><path d="M469.333 106.667H362.667V85.333c0-23.531-19.135-42.667-42.667-42.667H192c-23.531 0-42.667 19.135-42.667 42.667v21.333H42.667C19.135 106.667 0 125.802 0 149.333v277.333c0 23.531 19.135 42.667 42.667 42.667h426.667c23.531 0 42.667-19.135 42.667-42.667V149.333c-.001-23.531-19.136-42.666-42.668-42.666zM170.667 85.333C170.667 73.573 180.24 64 192 64h128c11.76 0 21.333 9.573 21.333 21.333v21.333H170.667V85.333zm320 341.334c0 11.76-9.573 21.333-21.333 21.333H42.667c-11.76 0-21.333-9.573-21.333-21.333V271.4c6.301 3.674 13.527 5.934 21.333 5.934h170.667v32a10.66 10.66 0 0 0 10.667 10.667h64a10.66 10.66 0 0 0 10.667-10.667v-32h170.667c7.806 0 15.033-2.259 21.333-5.934v155.267zm-256-128V256h42.667v42.667h-42.667zm256-64c0 11.76-9.573 21.333-21.333 21.333H298.667v-10.667A10.66 10.66 0 0 0 288 234.666h-64a10.66 10.66 0 0 0-10.667 10.667V256H42.667c-11.76 0-21.333-9.573-21.333-21.333v-85.333c0-11.76 9.573-21.333 21.333-21.333h426.667c11.76 0 21.333 9.573 21.333 21.333v85.333z"/></symbol><symbol viewBox="0 0 512 512" id="chek-list" xmlns="http://www.w3.org/2000/svg"><path d="M405.333 42.667h-44.632c-4.418-12.389-16.147-21.333-30.035-21.333h-32.229C288.417 8.042 272.667 0 256 0s-32.417 8.042-42.438 21.333h-32.229c-13.888 0-25.617 8.944-30.035 21.333h-44.631C83.146 42.667 64 61.802 64 85.333v384C64 492.865 83.146 512 106.667 512h298.667c23.52 0 42.666-19.135 42.666-42.667v-384c0-23.531-19.146-42.666-42.667-42.666zM170.667 53.333c0-5.885 4.792-10.667 10.667-10.667h37.917a10.64 10.64 0 0 0 9.208-5.302c5.854-10.042 16.146-16.031 27.542-16.031s21.688 5.99 27.542 16.031a10.643 10.643 0 0 0 9.208 5.302h37.917c5.875 0 10.667 4.781 10.667 10.667V64c0 11.76-9.563 21.333-21.333 21.333H192c-11.771 0-21.333-9.573-21.333-21.333V53.333zm256 416c0 11.76-9.563 21.333-21.333 21.333H106.667c-11.771 0-21.333-9.573-21.333-21.333v-384c0-11.76 9.563-21.333 21.333-21.333h42.667c0 23.531 19.146 42.667 42.667 42.667h128c23.521 0 42.667-19.135 42.667-42.667h42.667c11.771 0 21.333 9.573 21.333 21.333v384z"/><path d="M160 170.667c-17.646 0-32 14.354-32 32s14.354 32 32 32 32-14.354 32-32-14.354-32-32-32zm0 42.666c-5.875 0-10.667-4.781-10.667-10.667 0-5.885 4.792-10.667 10.667-10.667s10.667 4.781 10.667 10.667-4.792 10.667-10.667 10.667zm0 64c-17.646 0-32 14.354-32 32s14.354 32 32 32 32-14.354 32-32c0-17.645-14.354-32-32-32zM160 320c-5.875 0-10.667-4.781-10.667-10.667 0-5.885 4.792-10.667 10.667-10.667s10.667 4.781 10.667 10.667S165.875 320 160 320zm0 64c-17.646 0-32 14.354-32 32s14.354 32 32 32 32-14.354 32-32-14.354-32-32-32zm0 42.667c-5.875 0-10.667-4.781-10.667-10.667 0-5.885 4.792-10.667 10.667-10.667s10.667 4.781 10.667 10.667c0 5.885-4.792 10.667-10.667 10.667zM373.333 192h-128a10.66 10.66 0 0 0-10.667 10.667 10.66 10.66 0 0 0 10.667 10.667h128A10.66 10.66 0 0 0 384 202.667 10.66 10.66 0 0 0 373.333 192zm0 106.667h-128a10.66 10.66 0 0 0-10.667 10.667 10.66 10.66 0 0 0 10.667 10.667h128A10.66 10.66 0 0 0 384 309.334a10.66 10.66 0 0 0-10.667-10.667zm0 106.666h-128A10.66 10.66 0 0 0 234.666 416a10.66 10.66 0 0 0 10.667 10.667h128A10.66 10.66 0 0 0 384 416a10.66 10.66 0 0 0-10.667-10.667z"/></symbol><symbol viewBox="0 0 64 64" id="clock" xmlns="http://www.w3.org/2000/svg"><path d="M13.969 22.711a1.006 1.006 0 0 0 1.414 0A22.208 22.208 0 0 1 32 15.001L34 15a1 1 0 0 0 1-1v-3h1a2.002 2.002 0 0 0 2-2V6a2.002 2.002 0 0 0-2-2h-8a2.002 2.002 0 0 0-2 2v3a2.002 2.002 0 0 0 2 2h1v2.208a23.207 23.207 0 0 0-11.351 4.698l-1.559-1.558a2.047 2.047 0 0 0-2.828 0l-1.414 1.414a2.009 2.009 0 0 0 0 2.828ZM28 6h8l.001 3S29.28 9.002 28 9Zm3 7v-2h2v2Zm-16.324 4.762 1.414 1.414c-.465.463-.957.946-1.414 1.414l-1.414-1.414ZM32 60c19.412.088 30.478-22.696 18.608-37.866l1.544-1.544a2.009 2.009 0 0 0 0-2.828l-1.414-1.414a2.047 2.047 0 0 0-2.828 0l-1.548 1.547a23.458 23.458 0 0 0-7.178-3.768 1 1 0 0 0-.608 1.906 21.408 21.408 0 0 1 8.228 4.865C60.78 34.043 51.35 58.033 32 58c-15.8.26-26.559-17.42-19.13-31.334a1 1 0 0 0-1.78-.913C2.975 40.958 14.727 60.288 32 60Zm15.91-40.824 1.414-1.414 1.414 1.414-1.414 1.414c-.46-.47-.943-.952-1.414-1.414Z"/><path d="M13.5 36.5A18.52 18.52 0 0 0 32 55c24.543-1.016 24.536-35.988 0-37a18.52 18.52 0 0 0-18.5 18.5Zm35 0A16.519 16.519 0 0 1 32 53c-21.89-.906-21.883-32.097 0-33a16.519 16.519 0 0 1 16.5 16.5Z"/><path d="M31 23a1 1 0 0 0 2 0 1 1 0 0 0-2 0Zm14.5 14.5a1 1 0 0 0 0-2 1 1 0 0 0 0 2ZM32 49a1 1 0 0 0 0 2 1 1 0 0 0 0-2ZM18.5 35.5a1 1 0 0 0 0 2 1 1 0 0 0 0-2ZM33 28a1 1 0 0 0-2 0v5.684a2.99 2.99 0 0 0-1.945 3.361l-8.38 4.839a1 1 0 1 0 1 1.732l8.39-4.843c3.742 2.863 7.276-3.277 2.935-5.089Zm-1 9.5a1 1 0 0 1 0-2 1 1 0 0 1 0 2Z"/></symbol><symbol viewBox="0 0 512 512" id="deal" xmlns="http://www.w3.org/2000/svg"><path d="M507.448 108.594c-2.844-2-6.49-2.49-9.76-1.281l-86.958 31.625c-10.781 3.917-19.365 11.813-24.167 22.229-.9 1.953-1.491 3.982-2.083 6.008-14.932-4.245-42.682-13.111-70.26-27.32-41.673-21.473-73.51-10.867-100.816 9.961-13.836.272-32.906 1.908-51.652 3.56-11.958 1.055-23.259 2.026-32.423 2.585a42.64 42.64 0 0 0-3.889-16.126c-4.802-10.417-13.385-18.313-24.167-22.229l-86.96-31.627a10.648 10.648 0 0 0-9.76 1.281A10.672 10.672 0 0 0 0 96v213.333A10.66 10.66 0 0 0 10.667 320h31.156c13.251 0 25.579-6.25 33.548-16.342 4.245 3.228 9.273 7.008 14.546 10.967 12.448 9.365 26.073 19.583 32.052 24.594 39.719 33.25 87.469 69.156 96.979 75.406 8.885 5.833 24.885 12.042 37.052 12.042 4.76 0 16.75 0 25.167-7.115 8.677 3.406 18.031 3.24 26.729-.594 8.677-3.823 15.698-11.031 19.781-19.792 8.333 1.708 17.906.458 26.583-3.896 8.135-4.073 14.125-10.24 17.333-17.448 7.708.708 15.938-1.802 23.302-7.438 10.522-8.043 15.34-19.921 13.977-31.639l27.057-14.969c7.924 10.741 20.518 17.556 34.247 17.556h31.156a10.66 10.66 0 0 0 10.667-10.667V117.334a10.668 10.668 0 0 0-4.551-8.74zM61.802 284.823c-3.104 8.281-11.135 13.844-19.979 13.844h-20.49V111.229l72.646 26.417c5.396 1.969 9.688 5.917 12.083 11.125 2.406 5.208 2.615 11.042.604 16.406L61.802 284.823zm320.146 68.615c-3.615 2.771-8.677 4.313-10.927 2.063-.115-.115-.293-.104-.411-.214-.204-.189-.305-.444-.526-.62-7.625-6.021-41.792-40.979-62.906-63-4.073-4.26-10.833-4.417-15.073-.323-4.26 4.073-4.406 10.823-.323 15.073 4.956 5.173 44.74 46.608 60.663 61.099-1.189 4.684-5.531 7.576-7.736 8.682-6.833 3.427-13.958 2.854-16.625.375-.079-.074-.197-.07-.279-.142-.13-.116-.188-.279-.326-.389-12.792-10.219-44.885-44.323-52.146-52.219-3.99-4.344-10.729-4.615-15.073-.635-4.333 3.99-4.625 10.74-.635 15.073.35.379 31.802 34.306 49.467 50.065-1.736 4.988-5.273 9.119-9.811 11.122-3.349 1.488-8.587 2.251-14.572-2.172-15.318-12.988-46.059-45.711-52.105-52.182-4.01-4.313-10.781-4.531-15.073-.51-4.302 4.021-4.531 10.771-.51 15.073 7.168 7.672 28.355 30.128 44.461 45.333a46.119 46.119 0 0 1-5.482.344c-7.063 0-19.198-4.51-25.333-8.542-7.479-4.917-54.438-39.958-94.99-73.917-6.135-5.146-20.135-15.677-32.948-25.302-6.867-5.155-13.194-9.908-17.857-13.495l39.938-106.516c10.367-.453 24.188-1.648 38.815-2.938 8.273-.729 16.555-1.44 24.469-2.056-12.164 12.487-30.249 34.852-27.865 55.816 1.094 9.542 6.313 17.49 15.115 22.99 17.427 10.906 49.688 1.76 65.229-17.354 10.031-1.448 16.813-4.01 24.208-7.677 12.5 11.75 29.26 25.563 46.865 40.073 30.646 25.25 65.385 53.875 74.573 69.927 5.114 8.928-1.979 15.345-4.271 17.095zm18.299-34.304c-14.212-19.012-45.02-44.449-75.039-69.186-20.01-16.49-38.906-32.063-51-44.156-3.333-3.313-8.448-4.063-12.573-1.865-10.865 5.823-15.76 8.229-28.031 9.458a10.673 10.673 0 0 0-7.958 4.927c-8.365 13.271-31.615 19.583-38.99 14.979-4.188-2.625-5-5.292-5.229-7.323-1.031-9.073 8.156-24.781 23.396-40.031 37.74-37.74 64.719-45.125 99.625-27.125 33.164 17.099 65.895 26.767 79.635 30.419.397 1.598.685 3.212 1.271 4.779l41.417 110.451-26.524 14.673zm90.42.866h-20.49c-8.844 0-16.875-5.563-19.979-13.844l-44.865-119.635c-2.01-5.375-1.802-11.208.604-16.417 2.396-5.208 6.688-9.156 12.083-11.125l72.646-26.417V320z"/></symbol><symbol viewBox="0 0 32 32" id="instagram" xmlns="http://www.w3.org/2000/svg"><path d="M16 9.443h3.148c.786 0 1.18.13 1.442.262.394.131.656.262.918.524.262.263.394.525.525.919.13.262.262.655.262 1.442v6.295c0 .787-.131 1.18-.262 1.443-.131.393-.263.656-.525.918s-.524.393-.918.524c-.262.132-.656.263-1.442.263h-6.296c-.787 0-1.18-.131-1.442-.263-.394-.13-.656-.262-.918-.524-.263-.262-.394-.525-.525-.918-.13-.262-.262-.656-.262-1.443V12.59c0-.787.131-1.18.262-1.442.131-.394.262-.656.525-.918.262-.263.524-.394.918-.525.262-.131.655-.262 1.442-.262H16ZM16 8h-3.279c-.787 0-1.442.131-1.967.393-.524.263-.918.525-1.443.918-.393.394-.655.918-.918 1.443-.13.525-.262 1.05-.393 1.967v6.558c0 .787.131 1.442.393 1.967.263.524.525.918.918 1.443.394.393.918.655 1.443.918.525.13 1.05.262 1.967.393h6.558c.787 0 1.442-.131 1.967-.393.524-.263.918-.525 1.443-.918.393-.394.655-.919.918-1.443.13-.525.262-1.05.393-1.967V12.72c0-.787-.131-1.442-.393-1.967-.263-.524-.525-.918-.918-1.443-.394-.393-.919-.655-1.443-.918-.525-.13-1.05-.262-1.967-.393H16Z"/><path d="M16 11.803c-2.229 0-4.065 1.836-4.065 4.066 0 2.23 1.836 4.066 4.066 4.066 2.23 0 4.065-1.837 4.065-4.066 0-2.23-1.836-4.066-4.065-4.066Zm0 6.689a2.63 2.63 0 0 1-2.622-2.623A2.63 2.63 0 0 1 16 13.246a2.63 2.63 0 0 1 2.623 2.623A2.63 2.63 0 0 1 16 18.492ZM20.197 12.59a.918.918 0 1 0 0-1.836.918.918 0 0 0 0 1.836Z"/></symbol><symbol viewBox="0 0 568 544" id="logo" xmlns="http://www.w3.org/2000/svg"><path d="m128.441 265.582-78.754-72.277 121.801-120.14 121.817 23.573-63.371 65.746L566.12 497.012c5.363 35.683-11.437 51.668-45.473 45.488L181.215 211.187l-52.774 54.395"/><path d="M292.059.328c56.87 40.8 113.82 90.379 142.187 153.363 25.828 57.34 29.41 118.766 7.602 161.172-20.72 40.282-49.461 74.66-88.047 88.508-52.88 18.984-121.906 12.844-174.672-46.984-9.918-11.25-25.047-14.645-39.234-2.407L10.156 465.902c-19.246 16.606-6.238 40.352 2.285 47.739 8.528 7.382 32.012 16.265 48.88-3.426l92.738-108.27c70.761 93.715 216.343 115.297 306.699 29.856 30.117-28.485 49.496-69.32 64.055-122.723 25.207-92.437-7.086-173.418-68.07-230.8C413.647 37.73 353.636 5.07 292.058.327"/><path d="m95.004 368.035 58.652 60.211c13.516 13.875-7.43 34.274-20.945 20.402l-58.652-60.21c-13.512-13.872 7.425-34.278 20.945-20.403"/></symbol><symbol viewBox="0 0 512 512" id="people-card" xmlns="http://www.w3.org/2000/svg"><path d="M469.334 170.682h-5.926L390.125 42.709c-5.667-9.895-14.813-16.978-25.792-19.916-4.086-1.086-8.235-1.575-12.341-1.437-6.886.231-13.65 2.183-19.784 5.739L21.146 208.181C7.548 216.103-.067 230.54 0 245.345a42.623 42.623 0 0 0 5.667 21.02L64 368.241v79.762c0 23.53 19.146 42.665 42.667 42.665h362.667c23.521 0 42.667-19.134 42.667-42.665V213.347c-.001-23.53-19.146-42.665-42.667-42.665zM64 213.334V325.32l-39.833-69.57c-5.833-10.198-2.375-23.271 7.729-29.146l32.686-19.029c-.26 1.902-.582 3.787-.582 5.759zM342.959 45.532c4.833-2.833 10.458-3.594 15.854-2.135 5.438 1.458 9.979 4.979 12.813 9.916l67.21 117.369H127.98l214.979-125.15zM490.667 448c0 11.76-9.563 21.333-21.333 21.333H106.667c-11.771 0-21.333-9.573-21.333-21.333V213.334c0-11.76 9.563-21.333 21.333-21.333h362.667c11.771 0 21.333 9.573 21.333 21.333V448z"/><path d="M458.667 362.667h-128A10.66 10.66 0 0 0 320 373.334a10.66 10.66 0 0 0 10.667 10.667h128a10.66 10.66 0 0 0 10.667-10.667 10.66 10.66 0 0 0-10.667-10.667zm0-64H288a10.66 10.66 0 0 0-10.667 10.667A10.66 10.66 0 0 0 288 320.001h170.667a10.66 10.66 0 0 0 10.667-10.667 10.66 10.66 0 0 0-10.667-10.667zM192 341.334c23.521 0 42.667-19.135 42.667-42.667S215.521 256 192 256s-42.667 19.135-42.667 42.667S168.48 341.334 192 341.334zm0-64c11.771 0 21.333 9.573 21.333 21.333 0 11.76-9.563 21.333-21.333 21.333-11.771 0-21.333-9.573-21.333-21.333 0-11.761 9.563-21.333 21.333-21.333zm63.73 90.385C240.813 360.552 217.667 352 192 352c-25.667 0-48.813 8.552-63.729 15.719-13.333 6.417-21.604 19.219-21.604 33.406V406c0 11.396 9.563 20.667 21.333 20.667h128c11.771 0 21.333-9.271 21.333-20.667v-4.875c.001-14.187-8.27-26.989-21.603-33.406zm.27 37.615L128 406v-4.875c0-5.917 3.646-11.354 9.521-14.177 12.917-6.208 32.833-13.615 54.479-13.615s41.563 7.406 54.479 13.615c5.875 2.823 9.521 8.26 9.521 14.177v4.209z"/></symbol><symbol viewBox="0 0 64 64" id="shield" xmlns="http://www.w3.org/2000/svg"><path d="M8 24.702a1 1 0 0 0-1 1 36.053 36.053 0 0 0 24.684 34.247C46.782 55.874 56.993 41.219 57 25.702V11a1 1 0 0 0-.757-.97l-24-6a.996.996 0 0 0-.486 0l-24 6A1 1 0 0 0 7 11v9.702a1 1 0 0 0 2 0V11.78l23-5.75 23 5.75V25.7a34.055 34.055 0 0 1-23 32.243A34.055 34.055 0 0 1 9 25.702a1 1 0 0 0-1-1Z"/><path d="M44.347 44.591a1 1 0 0 0 1.557 1.255A32.212 32.212 0 0 0 53 25.7V14.12a1 1 0 0 0-.757-.97l-20-5a.996.996 0 0 0-.486 0l-20 5a1 1 0 0 0-.757.97V25.7a31.645 31.645 0 0 0 21 30.05 29.768 29.768 0 0 0 10.366-6.154 1 1 0 0 0-1.332-1.492 30.052 30.052 0 0 1-9.033 5.574A29.856 29.856 0 0 1 13 25.7V14.9l19-4.75 19 4.75v10.802a30.203 30.203 0 0 1-6.653 18.89Z"/><path d="m36.793 25.626-6.626 6.626-2.96-2.959a1 1 0 0 0-1.414 1.414l3.666 3.667a1 1 0 0 0 1.415 0l7.333-7.333a1 1 0 0 0-1.414-1.415Z"/><path d="M40.485 22.929a1 1 0 0 0 0-1.414C28.741 10.722 12.72 26.782 23.514 38.488c9.003 8.836 23.824-.346 19.854-12.336a1 1 0 0 0-1.896.637 10.002 10.002 0 0 1-16.544 10.285c-9.012-9.729 4.396-23.151 14.143-14.145a1 1 0 0 0 1.414 0Z"/></symbol><symbol viewBox="0 0 32 32" id="telegram" xmlns="http://www.w3.org/2000/svg"><path d="m10.873 16.54 1.25 3.773c.166.415.085.581.561.581.368 0 .53-.153.736-.336l1.769-1.577 3.676 2.493c.676.342 1.164.165 1.333-.577l2.413-10.431c.248-.908-.377-1.32-1.025-1.051L7.414 14.427c-.969.355-.961.85-.177 1.071l3.638 1.042-.002-.001Zm.846-.49 7.576-4.383c.397-.22.762-.102.463.142l-6.823 5.646-.14 1.912-1.076-3.316Z"/></symbol><symbol viewBox="0 0 64 64" id="thumbs-up" xmlns="http://www.w3.org/2000/svg"><path d="M15.87 26.654H5.444a1 1 0 0 0-1 1V59a1 1 0 0 0 1 1h10.424a2.053 2.053 0 0 0 2.042-2.165c4.983.005 19.114.013 21.09.01a1 1 0 1 0-.002-2c-6.365.01-21.088-.01-21.088-.01V36.82a1 1 0 0 0-2 0v20a.045.045 0 0 0 0 .027L15.868 58H6.445V28.654c2.307-.007 7.214.002 9.466.042v3.124a1 1 0 0 0 2 0v-1h3.936a5.973 5.973 0 0 0 5.346-3.27l3.865-7.523a8.615 8.615 0 0 0 .942-3.89V7.72a1.818 1.818 0 0 1 .619-.832c2.257-1.318 3.055-1.216 5.043.669 4.999 4.601 2.85 11.237.952 16.934-.889.022-2.34-.255-2.376 1.012a1 1 0 0 0 1.006.995c4.763-.025 10.811-.047 15.343 0a5.121 5.121 0 0 1 3.826 1.622 4.372 4.372 0 0 1 .23 5.57 1.674 1.674 0 0 0-.012 2.262 3.753 3.753 0 0 1-.983 5.725 1.653 1.653 0 0 0-.702 2.149 3.726 3.726 0 0 1-1.551 4.498 1.765 1.765 0 0 0-.798 2.221 4.061 4.061 0 0 1-4.105 5.286c-1.166.006-2.709.01-4.493.013a1 1 0 0 0 .001 2c1.787-.003 3.334-.007 4.5-.012a6.067 6.067 0 0 0 6.016-7.851 5.753 5.753 0 0 0 2.35-6.716 5.739 5.739 0 0 0 1.425-8.436 6.378 6.378 0 0 0-.392-8.047 7.096 7.096 0 0 0-5.292-2.284c-3.491-.037-7.87-.032-11.877-.016a63.68 63.68 0 0 0 .395-1.215c1.667-5.118 3.257-12.47-2.115-17.187-2.618-2.484-4.346-2.7-7.397-.921A3.46 3.46 0 0 0 30 7.545v8.592a6.596 6.596 0 0 1-.723 2.98l-3.864 7.521a3.982 3.982 0 0 1-3.566 2.182H17.91a2.053 2.053 0 0 0-2.042-2.166z"/></symbol><symbol viewBox="0 0 32 32" id="vk" xmlns="http://www.w3.org/2000/svg"><path d="M16.996 22.667c-6.492 0-10.44-4.512-10.596-12h3.3c.108 5.508 2.616 7.836 4.536 8.316v-8.316h3.144v4.752c1.86-.204 3.792-2.364 4.44-4.752h3.12a9.143 9.143 0 0 1-4.104 5.988 9.48 9.48 0 0 1 4.812 6.012H22.24c-.72-2.28-2.484-4.044-4.86-4.284v4.284h-.384Z"/></symbol><symbol viewBox="0 0 64 64" id="wallet" xmlns="http://www.w3.org/2000/svg"><path d="M8 57h46a4.004 4.004 0 0 0 4-4v-6a1 1 0 0 0-2 0v6a2.002 2.002 0 0 1-2 2H8a2.002 2.002 0 0 1-2-2V27.41a1 1 0 0 0-2 0V53a4.004 4.004 0 0 0 4 4z"/><path d="M58 31V21a4.005 4.005 0 0 0-4-4h-4v-6a4.005 4.005 0 0 0-4-4H8a4.005 4.005 0 0 0-4 4v11.41a1 1 0 0 0 2 0v-3.966A3.954 3.954 0 0 0 8 19h46a2.002 2.002 0 0 1 2 2v10h-8a4.005 4.005 0 0 0-4 4v4a4.004 4.004 0 0 0 4 4h10a2.002 2.002 0 0 0 2-2v-8a2.002 2.002 0 0 0-2-2zM48 17H8a2.002 2.002 0 0 1-2-2v-4a2.002 2.002 0 0 1 2-2h38a2.002 2.002 0 0 1 2 2zm10 24H48a2.002 2.002 0 0 1-2-2v-4a2.002 2.002 0 0 1 2-2h10z"/><path d="M49 38a1 1 0 0 0 0-2 1 1 0 0 0 0 2z"/></symbol><symbol viewBox="0 0 32 32" id="whatsapp" xmlns="http://www.w3.org/2000/svg"><path d="M21.6 10.3C20.1 8.8 18.1 8 16 8c-4.4 0-7.9 3.6-7.9 7.9 0 1.4.4 2.8 1.1 4L8 24l4.2-1.1c1.2.6 2.5 1 3.8 1 4.4 0 7.9-3.6 7.9-7.9 0-2.2-.8-4.2-2.3-5.7ZM16 22.5c-1.2 0-2.3-.3-3.4-.9l-.2-.1-2.5.6.7-2.4-.2-.2c-.7-1-1-2.3-1-3.5 0-3.6 3-6.6 6.6-6.6 1.8 0 3.4.7 4.7 1.9 1.2 1.2 1.9 2.9 1.9 4.7 0 3.6-3 6.5-6.6 6.5Zm3.6-4.9c-.2-.1-1.2-.6-1.4-.6-.2 0-.3-.2-.4 0-.1.2-.5.6-.6.8-.1.1-.2.1-.4 0s-.8-.3-1.6-1c-.6-.5-1-1.2-1.1-1.4-.1-.2 0-.3.1-.4l.3-.3c.1-.1.1-.2.2-.3.1-.1 0-.2 0-.3 0-.1-.4-1.1-.6-1.5-.2-.4-.3-.3-.4-.3h-.4c-.1 0-.3 0-.5.2s-.7.7-.7 1.7.7 1.9.8 2c.1.1 1.4 2.1 3.4 3 .5.2.8.3 1.1.4.5.2.9.1 1.2.1.4-.1 1.2-.5 1.3-.9.2-.5.2-.9.1-.9s-.2-.2-.4-.3Z"/></symbol></svg>